<mxfile host="app.diagrams.net" modified="2023-06-04T01:44:18.753Z" agent="Mozilla/5.0 (Windows NT 10.0; Win64; x64) AppleWebKit/537.36 (KHTML, like Gecko) Chrome/114.0.0.0 Safari/537.36" etag="aZYqkqeIAkzHUKQznbUv" version="21.3.4" type="github" pages="2">
  <diagram name="PatientUseCase" id="zxL5nQAqXX0AkMMArjW-">
    <mxGraphModel dx="1050" dy="541" grid="1" gridSize="10" guides="1" tooltips="1" connect="1" arrows="1" fold="1" page="1" pageScale="1" pageWidth="850" pageHeight="1100" math="0" shadow="0">
      <root>
        <mxCell id="0" />
        <mxCell id="1" parent="0" />
        <mxCell id="uA1yjkFGK57nxFIue9zr-2" value="Patient" style="shape=umlActor;verticalLabelPosition=bottom;verticalAlign=top;html=1;outlineConnect=0;labelBackgroundColor=none;fillColor=#182E3E;strokeColor=#FFFFFF;fontColor=#FFFFFF;" parent="1" vertex="1">
          <mxGeometry x="70" y="240" width="30" height="60" as="geometry" />
        </mxCell>
        <mxCell id="uA1yjkFGK57nxFIue9zr-3" value="Login" style="ellipse;labelBackgroundColor=none;fillColor=#182E3E;strokeColor=#FFFFFF;fontColor=#FFFFFF;whiteSpace=wrap;" parent="1" vertex="1">
          <mxGeometry x="220" y="43" width="90" height="47" as="geometry" />
        </mxCell>
        <mxCell id="uA1yjkFGK57nxFIue9zr-4" value="Register" style="ellipse;whiteSpace=wrap;html=1;labelBackgroundColor=none;fillColor=#182E3E;strokeColor=#FFFFFF;fontColor=#FFFFFF;" parent="1" vertex="1">
          <mxGeometry x="220" y="120" width="90" height="50" as="geometry" />
        </mxCell>
        <mxCell id="uA1yjkFGK57nxFIue9zr-5" value="Your Doctor" style="ellipse;whiteSpace=wrap;html=1;labelBackgroundColor=none;fillColor=#182E3E;strokeColor=#FFFFFF;fontColor=#FFFFFF;" parent="1" vertex="1">
          <mxGeometry x="220" y="200" width="90" height="50" as="geometry" />
        </mxCell>
        <mxCell id="uA1yjkFGK57nxFIue9zr-6" value="Appointment" style="ellipse;whiteSpace=wrap;html=1;labelBackgroundColor=none;fillColor=#182E3E;strokeColor=#FFFFFF;fontColor=#FFFFFF;" parent="1" vertex="1">
          <mxGeometry x="220" y="270" width="90" height="50" as="geometry" />
        </mxCell>
        <mxCell id="uA1yjkFGK57nxFIue9zr-7" value="Report" style="ellipse;whiteSpace=wrap;html=1;labelBackgroundColor=none;fillColor=#182E3E;strokeColor=#FFFFFF;fontColor=#FFFFFF;" parent="1" vertex="1">
          <mxGeometry x="220" y="350" width="90" height="50" as="geometry" />
        </mxCell>
        <mxCell id="uA1yjkFGK57nxFIue9zr-8" value="Edit Profill" style="ellipse;whiteSpace=wrap;html=1;labelBackgroundColor=none;fillColor=#182E3E;strokeColor=#FFFFFF;fontColor=#FFFFFF;" parent="1" vertex="1">
          <mxGeometry x="220" y="420" width="90" height="50" as="geometry" />
        </mxCell>
        <mxCell id="uA1yjkFGK57nxFIue9zr-34" value="" style="endArrow=none;html=1;rounded=0;labelBackgroundColor=none;fontColor=default;strokeColor=#23445D;" parent="1" edge="1">
          <mxGeometry width="50" height="50" relative="1" as="geometry">
            <mxPoint x="200" y="550" as="sourcePoint" />
            <mxPoint x="200" y="10" as="targetPoint" />
          </mxGeometry>
        </mxCell>
        <mxCell id="uA1yjkFGK57nxFIue9zr-36" value="" style="endArrow=none;html=1;rounded=0;labelBackgroundColor=none;fontColor=default;strokeColor=#23445D;" parent="1" edge="1">
          <mxGeometry width="50" height="50" relative="1" as="geometry">
            <mxPoint x="200" y="10" as="sourcePoint" />
            <mxPoint x="550" y="10" as="targetPoint" />
          </mxGeometry>
        </mxCell>
        <mxCell id="uA1yjkFGK57nxFIue9zr-37" value="" style="endArrow=none;html=1;rounded=0;labelBackgroundColor=none;fontColor=default;strokeColor=#23445D;" parent="1" edge="1">
          <mxGeometry width="50" height="50" relative="1" as="geometry">
            <mxPoint x="550" y="550" as="sourcePoint" />
            <mxPoint x="550" y="10" as="targetPoint" />
          </mxGeometry>
        </mxCell>
        <mxCell id="uA1yjkFGK57nxFIue9zr-38" value="" style="endArrow=none;html=1;rounded=0;labelBackgroundColor=none;fontColor=default;strokeColor=#23445D;" parent="1" edge="1">
          <mxGeometry width="50" height="50" relative="1" as="geometry">
            <mxPoint x="200" y="549" as="sourcePoint" />
            <mxPoint x="550" y="550" as="targetPoint" />
          </mxGeometry>
        </mxCell>
        <mxCell id="uA1yjkFGK57nxFIue9zr-39" value="" style="endArrow=none;html=1;rounded=0;entryX=0.062;entryY=0.695;entryDx=0;entryDy=0;entryPerimeter=0;labelBackgroundColor=none;fontColor=default;strokeColor=#23445D;exitX=1;exitY=0.3333333333333333;exitDx=0;exitDy=0;exitPerimeter=0;" parent="1" target="uA1yjkFGK57nxFIue9zr-3" edge="1" source="uA1yjkFGK57nxFIue9zr-2">
          <mxGeometry width="50" height="50" relative="1" as="geometry">
            <mxPoint x="110" y="300" as="sourcePoint" />
            <mxPoint x="170" y="210" as="targetPoint" />
          </mxGeometry>
        </mxCell>
        <mxCell id="uA1yjkFGK57nxFIue9zr-40" value="" style="endArrow=none;html=1;rounded=0;entryX=0.036;entryY=0.725;entryDx=0;entryDy=0;entryPerimeter=0;labelBackgroundColor=none;fontColor=default;strokeColor=#23445D;exitX=1;exitY=0.3333333333333333;exitDx=0;exitDy=0;exitPerimeter=0;" parent="1" target="uA1yjkFGK57nxFIue9zr-4" edge="1" source="uA1yjkFGK57nxFIue9zr-2">
          <mxGeometry width="50" height="50" relative="1" as="geometry">
            <mxPoint x="120" y="260" as="sourcePoint" />
            <mxPoint x="170" y="210" as="targetPoint" />
          </mxGeometry>
        </mxCell>
        <mxCell id="uA1yjkFGK57nxFIue9zr-41" value="" style="endArrow=none;html=1;rounded=0;labelBackgroundColor=none;fontColor=default;strokeColor=#23445D;exitX=1;exitY=0.3333333333333333;exitDx=0;exitDy=0;exitPerimeter=0;entryX=0;entryY=0.5;entryDx=0;entryDy=0;" parent="1" edge="1" target="uA1yjkFGK57nxFIue9zr-6" source="uA1yjkFGK57nxFIue9zr-2">
          <mxGeometry width="50" height="50" relative="1" as="geometry">
            <mxPoint x="160" y="330" as="sourcePoint" />
            <mxPoint x="210" y="280" as="targetPoint" />
          </mxGeometry>
        </mxCell>
        <mxCell id="l2GhuH7nUabS5cjkJu---6" value="" style="endArrow=none;html=1;rounded=0;strokeColor=#23445D;exitX=1;exitY=0.3333333333333333;exitDx=0;exitDy=0;exitPerimeter=0;entryX=0;entryY=0.5;entryDx=0;entryDy=0;" edge="1" parent="1" source="uA1yjkFGK57nxFIue9zr-2" target="uA1yjkFGK57nxFIue9zr-5">
          <mxGeometry width="50" height="50" relative="1" as="geometry">
            <mxPoint x="180" y="270" as="sourcePoint" />
            <mxPoint x="240" y="220" as="targetPoint" />
          </mxGeometry>
        </mxCell>
        <mxCell id="l2GhuH7nUabS5cjkJu---11" value="" style="endArrow=none;html=1;rounded=0;strokeColor=#23445D;entryX=0;entryY=0.5;entryDx=0;entryDy=0;exitX=1;exitY=0.3333333333333333;exitDx=0;exitDy=0;exitPerimeter=0;" edge="1" parent="1" source="uA1yjkFGK57nxFIue9zr-2" target="uA1yjkFGK57nxFIue9zr-7">
          <mxGeometry width="50" height="50" relative="1" as="geometry">
            <mxPoint x="130" y="340" as="sourcePoint" />
            <mxPoint x="180" y="290" as="targetPoint" />
          </mxGeometry>
        </mxCell>
        <mxCell id="l2GhuH7nUabS5cjkJu---13" value="" style="endArrow=none;html=1;rounded=0;strokeColor=#23445D;exitX=1;exitY=0.3333333333333333;exitDx=0;exitDy=0;exitPerimeter=0;entryX=0.036;entryY=0.235;entryDx=0;entryDy=0;entryPerimeter=0;" edge="1" parent="1" source="uA1yjkFGK57nxFIue9zr-2" target="uA1yjkFGK57nxFIue9zr-8">
          <mxGeometry width="50" height="50" relative="1" as="geometry">
            <mxPoint x="110" y="270" as="sourcePoint" />
            <mxPoint x="240" y="340" as="targetPoint" />
          </mxGeometry>
        </mxCell>
        <mxCell id="l2GhuH7nUabS5cjkJu---14" value="Verification" style="ellipse;labelBackgroundColor=none;fillColor=#182E3E;strokeColor=#FFFFFF;fontColor=#FFFFFF;whiteSpace=wrap;" vertex="1" parent="1">
          <mxGeometry x="425" y="23" width="90" height="47" as="geometry" />
        </mxCell>
        <mxCell id="l2GhuH7nUabS5cjkJu---23" value="" style="endArrow=classic;html=1;rounded=0;dashed=1;dashPattern=1 3;labelBackgroundColor=default;strokeColor=#23445D;strokeWidth=2;fontFamily=Helvetica;fontSize=11;fontColor=default;shape=connector;entryX=0;entryY=0.5;entryDx=0;entryDy=0;exitX=1;exitY=0.5;exitDx=0;exitDy=0;" edge="1" parent="1" source="uA1yjkFGK57nxFIue9zr-3" target="l2GhuH7nUabS5cjkJu---14">
          <mxGeometry relative="1" as="geometry">
            <mxPoint x="340" y="70" as="sourcePoint" />
            <mxPoint x="371.20000000000005" y="38.610000000000014" as="targetPoint" />
          </mxGeometry>
        </mxCell>
        <mxCell id="l2GhuH7nUabS5cjkJu---27" value="Error Message" style="ellipse;labelBackgroundColor=none;fillColor=#182E3E;strokeColor=#FFFFFF;fontColor=#FFFFFF;whiteSpace=wrap;" vertex="1" parent="1">
          <mxGeometry x="425" y="80" width="90" height="50" as="geometry" />
        </mxCell>
        <mxCell id="l2GhuH7nUabS5cjkJu---28" value="" style="endArrow=classic;html=1;rounded=0;dashed=1;dashPattern=1 3;labelBackgroundColor=default;strokeColor=#23445D;strokeWidth=2;fontFamily=Helvetica;fontSize=11;fontColor=default;shape=connector;exitX=0.04;exitY=0.715;exitDx=0;exitDy=0;exitPerimeter=0;entryX=1;entryY=1;entryDx=0;entryDy=0;" edge="1" parent="1" source="l2GhuH7nUabS5cjkJu---27" target="uA1yjkFGK57nxFIue9zr-3">
          <mxGeometry relative="1" as="geometry">
            <mxPoint x="370" y="280" as="sourcePoint" />
            <mxPoint x="470" y="280" as="targetPoint" />
          </mxGeometry>
        </mxCell>
        <mxCell id="l2GhuH7nUabS5cjkJu---29" value="&amp;lt;&amp;lt;extend&amp;gt;&amp;gt;" style="edgeLabel;resizable=0;html=1;align=center;verticalAlign=middle;strokeColor=#FFFFFF;fontFamily=Helvetica;fontSize=11;fontColor=default;fillColor=#182E3E;" connectable="0" vertex="1" parent="l2GhuH7nUabS5cjkJu---28">
          <mxGeometry relative="1" as="geometry" />
        </mxCell>
        <mxCell id="l2GhuH7nUabS5cjkJu---30" value="&amp;lt;&amp;lt;include&amp;gt;&amp;gt;" style="text;html=1;align=center;verticalAlign=middle;resizable=0;points=[];autosize=1;strokeColor=none;fillColor=none;fontSize=11;fontFamily=Helvetica;fontColor=default;rotation=0;" vertex="1" parent="1">
          <mxGeometry x="310" y="23" width="80" height="30" as="geometry" />
        </mxCell>
        <mxCell id="l2GhuH7nUabS5cjkJu---32" value="Error Message" style="ellipse;labelBackgroundColor=none;fillColor=#182E3E;strokeColor=#FFFFFF;fontColor=#FFFFFF;whiteSpace=wrap;" vertex="1" parent="1">
          <mxGeometry x="380" y="190" width="90" height="50" as="geometry" />
        </mxCell>
        <mxCell id="l2GhuH7nUabS5cjkJu---33" value="" style="endArrow=classic;html=1;rounded=0;dashed=1;dashPattern=1 3;labelBackgroundColor=default;strokeColor=#23445D;strokeWidth=2;fontFamily=Helvetica;fontSize=11;fontColor=default;shape=connector;exitX=0.036;exitY=0.195;exitDx=0;exitDy=0;exitPerimeter=0;entryX=1.009;entryY=0.705;entryDx=0;entryDy=0;entryPerimeter=0;" edge="1" parent="1" source="l2GhuH7nUabS5cjkJu---32" target="uA1yjkFGK57nxFIue9zr-4">
          <mxGeometry relative="1" as="geometry">
            <mxPoint x="425" y="160" as="sourcePoint" />
            <mxPoint x="298" y="148" as="targetPoint" />
          </mxGeometry>
        </mxCell>
        <mxCell id="l2GhuH7nUabS5cjkJu---34" value="&amp;lt;&amp;lt;extend&amp;gt;&amp;gt;" style="edgeLabel;resizable=0;html=1;align=center;verticalAlign=middle;strokeColor=#FFFFFF;fontFamily=Helvetica;fontSize=11;fontColor=default;fillColor=#182E3E;" connectable="0" vertex="1" parent="l2GhuH7nUabS5cjkJu---33">
          <mxGeometry relative="1" as="geometry" />
        </mxCell>
        <mxCell id="l2GhuH7nUabS5cjkJu---35" value="Save data in database" style="ellipse;labelBackgroundColor=none;fillColor=#182E3E;strokeColor=#FFFFFF;fontColor=#FFFFFF;whiteSpace=wrap;" vertex="1" parent="1">
          <mxGeometry x="430" y="140" width="95" height="50" as="geometry" />
        </mxCell>
        <mxCell id="l2GhuH7nUabS5cjkJu---40" value="" style="endArrow=classic;html=1;rounded=0;dashed=1;dashPattern=1 3;labelBackgroundColor=default;strokeColor=#23445D;strokeWidth=2;fontFamily=Helvetica;fontSize=11;fontColor=default;shape=connector;entryX=0;entryY=0.5;entryDx=0;entryDy=0;exitX=1;exitY=0.5;exitDx=0;exitDy=0;" edge="1" parent="1" source="uA1yjkFGK57nxFIue9zr-4" target="l2GhuH7nUabS5cjkJu---35">
          <mxGeometry relative="1" as="geometry">
            <mxPoint x="370" y="300" as="sourcePoint" />
            <mxPoint x="470" y="300" as="targetPoint" />
          </mxGeometry>
        </mxCell>
        <mxCell id="l2GhuH7nUabS5cjkJu---41" value="&amp;lt;&amp;lt;include&amp;gt;&amp;gt;" style="edgeLabel;resizable=0;html=1;align=center;verticalAlign=middle;strokeColor=#FFFFFF;fontFamily=Helvetica;fontSize=11;fontColor=default;fillColor=#182E3E;" connectable="0" vertex="1" parent="l2GhuH7nUabS5cjkJu---40">
          <mxGeometry relative="1" as="geometry" />
        </mxCell>
        <mxCell id="l2GhuH7nUabS5cjkJu---48" value="Check Appointments" style="ellipse;whiteSpace=wrap;html=1;labelBackgroundColor=none;fillColor=#182E3E;strokeColor=#FFFFFF;fontColor=#FFFFFF;" vertex="1" parent="1">
          <mxGeometry x="390" y="245" width="90" height="50" as="geometry" />
        </mxCell>
        <mxCell id="l2GhuH7nUabS5cjkJu---53" value="Make Appointment" style="ellipse;whiteSpace=wrap;html=1;labelBackgroundColor=none;fillColor=#182E3E;strokeColor=#FFFFFF;fontColor=#FFFFFF;" vertex="1" parent="1">
          <mxGeometry x="390" y="350" width="90" height="50" as="geometry" />
        </mxCell>
        <mxCell id="l2GhuH7nUabS5cjkJu---54" value="Update data in database" style="ellipse;whiteSpace=wrap;html=1;labelBackgroundColor=none;fillColor=#182E3E;strokeColor=#FFFFFF;fontColor=#FFFFFF;" vertex="1" parent="1">
          <mxGeometry x="370" y="470" width="90" height="50" as="geometry" />
        </mxCell>
        <mxCell id="l2GhuH7nUabS5cjkJu---56" value="" style="endArrow=classic;html=1;rounded=0;dashed=1;dashPattern=1 3;labelBackgroundColor=default;strokeColor=#23445D;strokeWidth=2;fontFamily=Helvetica;fontSize=11;fontColor=default;shape=connector;entryX=0;entryY=0;entryDx=0;entryDy=0;exitX=1;exitY=0.5;exitDx=0;exitDy=0;" edge="1" parent="1" source="uA1yjkFGK57nxFIue9zr-8" target="l2GhuH7nUabS5cjkJu---54">
          <mxGeometry relative="1" as="geometry">
            <mxPoint x="310" y="430" as="sourcePoint" />
            <mxPoint x="395" y="430" as="targetPoint" />
          </mxGeometry>
        </mxCell>
        <mxCell id="l2GhuH7nUabS5cjkJu---57" value="&amp;lt;&amp;lt;include&amp;gt;&amp;gt;" style="edgeLabel;resizable=0;html=1;align=center;verticalAlign=middle;strokeColor=#FFFFFF;fontFamily=Helvetica;fontSize=11;fontColor=default;fillColor=#182E3E;" connectable="0" vertex="1" parent="l2GhuH7nUabS5cjkJu---56">
          <mxGeometry relative="1" as="geometry" />
        </mxCell>
        <mxCell id="l2GhuH7nUabS5cjkJu---66" value="" style="endArrow=none;html=1;rounded=0;labelBackgroundColor=none;fontColor=default;strokeColor=#23445D;exitX=1;exitY=1;exitDx=0;exitDy=0;entryX=0;entryY=0.5;entryDx=0;entryDy=0;" edge="1" parent="1" source="uA1yjkFGK57nxFIue9zr-6" target="l2GhuH7nUabS5cjkJu---53">
          <mxGeometry width="50" height="50" relative="1" as="geometry">
            <mxPoint x="300" y="315" as="sourcePoint" />
            <mxPoint x="420" y="350" as="targetPoint" />
          </mxGeometry>
        </mxCell>
        <mxCell id="l2GhuH7nUabS5cjkJu---67" value="" style="endArrow=none;html=1;rounded=0;labelBackgroundColor=none;fontColor=default;strokeColor=#23445D;exitX=1;exitY=0.5;exitDx=0;exitDy=0;entryX=0;entryY=0.5;entryDx=0;entryDy=0;" edge="1" parent="1" source="uA1yjkFGK57nxFIue9zr-6" target="l2GhuH7nUabS5cjkJu---48">
          <mxGeometry width="50" height="50" relative="1" as="geometry">
            <mxPoint x="320" y="300" as="sourcePoint" />
            <mxPoint x="413" y="342" as="targetPoint" />
          </mxGeometry>
        </mxCell>
        <mxCell id="l2GhuH7nUabS5cjkJu---70" value="Cancel Appointment" style="ellipse;labelBackgroundColor=none;fillColor=#182E3E;strokeColor=#FFFFFF;fontColor=#FFFFFF;whiteSpace=wrap;" vertex="1" parent="1">
          <mxGeometry x="450" y="300" width="90" height="50" as="geometry" />
        </mxCell>
        <mxCell id="l2GhuH7nUabS5cjkJu---73" value="" style="endArrow=none;html=1;rounded=0;labelBackgroundColor=none;fontColor=default;strokeColor=#23445D;exitX=0;exitY=0.5;exitDx=0;exitDy=0;entryX=1;entryY=0.5;entryDx=0;entryDy=0;" edge="1" parent="1" source="l2GhuH7nUabS5cjkJu---70" target="uA1yjkFGK57nxFIue9zr-6">
          <mxGeometry width="50" height="50" relative="1" as="geometry">
            <mxPoint x="307" y="323" as="sourcePoint" />
            <mxPoint x="390" y="395" as="targetPoint" />
          </mxGeometry>
        </mxCell>
      </root>
    </mxGraphModel>
  </diagram>
  <diagram id="E2EriJdUbzyZtGakTttA" name="AdminUsecase">
    <mxGraphModel dx="2465" dy="832" grid="1" gridSize="20" guides="1" tooltips="1" connect="1" arrows="1" fold="1" page="1" pageScale="1" pageWidth="850" pageHeight="1100" math="0" shadow="1">
      <root>
        <mxCell id="0" />
        <mxCell id="1" parent="0" />
        <mxCell id="AwmBCkN8pmVGD5Ynmysm-78" value="Admin" style="shape=umlActor;verticalLabelPosition=bottom;verticalAlign=top;html=1;outlineConnect=0;labelBackgroundColor=none;" vertex="1" parent="1">
          <mxGeometry x="-460" y="880" width="30" height="60" as="geometry" />
        </mxCell>
        <mxCell id="AwmBCkN8pmVGD5Ynmysm-79" value="" style="endArrow=none;html=1;rounded=0;labelBackgroundColor=none;fontColor=default;" edge="1" parent="1">
          <mxGeometry width="50" height="50" relative="1" as="geometry">
            <mxPoint x="-315" y="1570" as="sourcePoint" />
            <mxPoint x="-315" y="280" as="targetPoint" />
          </mxGeometry>
        </mxCell>
        <mxCell id="AwmBCkN8pmVGD5Ynmysm-80" value="" style="endArrow=none;html=1;rounded=0;labelBackgroundColor=none;fontColor=default;" edge="1" parent="1">
          <mxGeometry width="50" height="50" relative="1" as="geometry">
            <mxPoint x="-315" y="280" as="sourcePoint" />
            <mxPoint x="325" y="280" as="targetPoint" />
            <Array as="points">
              <mxPoint x="-45" y="280" />
            </Array>
          </mxGeometry>
        </mxCell>
        <mxCell id="AwmBCkN8pmVGD5Ynmysm-81" value="" style="endArrow=none;html=1;rounded=0;entryX=0;entryY=0.5;entryDx=0;entryDy=0;labelBackgroundColor=none;fontColor=default;exitX=1;exitY=0.3333333333333333;exitDx=0;exitDy=0;exitPerimeter=0;" edge="1" parent="1" source="AwmBCkN8pmVGD5Ynmysm-78" target="AwmBCkN8pmVGD5Ynmysm-90">
          <mxGeometry width="50" height="50" relative="1" as="geometry">
            <mxPoint x="-365" y="570" as="sourcePoint" />
            <mxPoint x="-249.42000000000007" y="345.66499999999996" as="targetPoint" />
          </mxGeometry>
        </mxCell>
        <mxCell id="AwmBCkN8pmVGD5Ynmysm-82" value="" style="endArrow=none;html=1;rounded=0;entryX=0;entryY=0.5;entryDx=0;entryDy=0;labelBackgroundColor=none;fontColor=default;exitX=1;exitY=0.3333333333333333;exitDx=0;exitDy=0;exitPerimeter=0;" edge="1" parent="1" source="AwmBCkN8pmVGD5Ynmysm-78" target="AwmBCkN8pmVGD5Ynmysm-91">
          <mxGeometry width="50" height="50" relative="1" as="geometry">
            <mxPoint x="-355" y="530" as="sourcePoint" />
            <mxPoint x="-251.76" y="426.25" as="targetPoint" />
          </mxGeometry>
        </mxCell>
        <mxCell id="AwmBCkN8pmVGD5Ynmysm-83" value="" style="endArrow=none;html=1;rounded=0;labelBackgroundColor=none;fontColor=default;exitX=1;exitY=0.3333333333333333;exitDx=0;exitDy=0;exitPerimeter=0;entryX=0;entryY=0.5;entryDx=0;entryDy=0;" edge="1" parent="1" source="AwmBCkN8pmVGD5Ynmysm-78" target="AwmBCkN8pmVGD5Ynmysm-98">
          <mxGeometry width="50" height="50" relative="1" as="geometry">
            <mxPoint x="-315" y="600" as="sourcePoint" />
            <mxPoint x="-255" y="565" as="targetPoint" />
          </mxGeometry>
        </mxCell>
        <mxCell id="AwmBCkN8pmVGD5Ynmysm-84" value="" style="endArrow=none;html=1;rounded=0;exitX=1;exitY=0.3333333333333333;exitDx=0;exitDy=0;exitPerimeter=0;labelBackgroundColor=none;fontColor=default;entryX=0;entryY=0;entryDx=0;entryDy=0;" edge="1" parent="1" source="AwmBCkN8pmVGD5Ynmysm-78" target="AwmBCkN8pmVGD5Ynmysm-108">
          <mxGeometry width="50" height="50" relative="1" as="geometry">
            <mxPoint x="-295" y="540" as="sourcePoint" />
            <mxPoint x="-245" y="545" as="targetPoint" />
          </mxGeometry>
        </mxCell>
        <mxCell id="AwmBCkN8pmVGD5Ynmysm-85" value="" style="endArrow=none;html=1;rounded=0;exitX=1;exitY=0.3333333333333333;exitDx=0;exitDy=0;exitPerimeter=0;labelBackgroundColor=none;fontColor=default;entryX=0;entryY=0;entryDx=0;entryDy=0;" edge="1" parent="1" source="AwmBCkN8pmVGD5Ynmysm-78" target="AwmBCkN8pmVGD5Ynmysm-125">
          <mxGeometry width="50" height="50" relative="1" as="geometry">
            <mxPoint x="-345" y="610" as="sourcePoint" />
            <mxPoint x="-335" y="830" as="targetPoint" />
          </mxGeometry>
        </mxCell>
        <mxCell id="AwmBCkN8pmVGD5Ynmysm-86" value="" style="endArrow=none;html=1;rounded=0;exitX=1;exitY=0.3333333333333333;exitDx=0;exitDy=0;exitPerimeter=0;entryX=0.217;entryY=0.097;entryDx=0;entryDy=0;entryPerimeter=0;labelBackgroundColor=none;fontColor=default;" edge="1" parent="1" source="AwmBCkN8pmVGD5Ynmysm-78" target="AwmBCkN8pmVGD5Ynmysm-109">
          <mxGeometry width="50" height="50" relative="1" as="geometry">
            <mxPoint x="-365" y="540" as="sourcePoint" />
            <mxPoint x="-251.76" y="701.75" as="targetPoint" />
          </mxGeometry>
        </mxCell>
        <mxCell id="AwmBCkN8pmVGD5Ynmysm-87" value="Verification" style="ellipse;labelBackgroundColor=none;whiteSpace=wrap;" vertex="1" parent="1">
          <mxGeometry x="12.5" y="290" width="125" height="67" as="geometry" />
        </mxCell>
        <mxCell id="AwmBCkN8pmVGD5Ynmysm-88" value="Error Message" style="ellipse;labelBackgroundColor=none;whiteSpace=wrap;" vertex="1" parent="1">
          <mxGeometry x="135" y="310" width="125" height="70" as="geometry" />
        </mxCell>
        <mxCell id="AwmBCkN8pmVGD5Ynmysm-89" value="Update data in database" style="ellipse;whiteSpace=wrap;html=1;labelBackgroundColor=none;" vertex="1" parent="1">
          <mxGeometry x="95" y="790" width="140" height="80" as="geometry" />
        </mxCell>
        <mxCell id="AwmBCkN8pmVGD5Ynmysm-90" value="Login" style="ellipse;whiteSpace=wrap;html=1;fontFamily=Helvetica;fontSize=11;labelBackgroundColor=none;" vertex="1" parent="1">
          <mxGeometry x="-275" y="300" width="140" height="70" as="geometry" />
        </mxCell>
        <mxCell id="AwmBCkN8pmVGD5Ynmysm-91" value="Appointment" style="ellipse;whiteSpace=wrap;html=1;fontFamily=Helvetica;fontSize=11;labelBackgroundColor=none;" vertex="1" parent="1">
          <mxGeometry x="-275" y="400" width="140" height="70" as="geometry" />
        </mxCell>
        <mxCell id="AwmBCkN8pmVGD5Ynmysm-92" value="Fetch Data" style="ellipse;whiteSpace=wrap;html=1;fontFamily=Helvetica;fontSize=11;labelBackgroundColor=none;" vertex="1" parent="1">
          <mxGeometry x="15" y="390" width="140" height="70" as="geometry" />
        </mxCell>
        <mxCell id="AwmBCkN8pmVGD5Ynmysm-93" value="Add Doctor" style="ellipse;whiteSpace=wrap;html=1;fontFamily=Helvetica;fontSize=11;labelBackgroundColor=none;" vertex="1" parent="1">
          <mxGeometry x="-50" y="470" width="140" height="70" as="geometry" />
        </mxCell>
        <mxCell id="AwmBCkN8pmVGD5Ynmysm-94" value="View&amp;nbsp;" style="ellipse;whiteSpace=wrap;html=1;fontFamily=Helvetica;fontSize=11;labelBackgroundColor=none;" vertex="1" parent="1">
          <mxGeometry x="45" y="540" width="140" height="70" as="geometry" />
        </mxCell>
        <mxCell id="AwmBCkN8pmVGD5Ynmysm-95" value="" style="endArrow=none;html=1;rounded=0;exitX=0.06;exitY=0.786;exitDx=0;exitDy=0;labelBackgroundColor=none;fontColor=default;entryX=1;entryY=0.5;entryDx=0;entryDy=0;exitPerimeter=0;" edge="1" parent="1" source="AwmBCkN8pmVGD5Ynmysm-93" target="AwmBCkN8pmVGD5Ynmysm-98">
          <mxGeometry width="50" height="50" relative="1" as="geometry">
            <mxPoint x="-95" y="465" as="sourcePoint" />
            <mxPoint x="93" y="600" as="targetPoint" />
          </mxGeometry>
        </mxCell>
        <mxCell id="AwmBCkN8pmVGD5Ynmysm-96" value="" style="endArrow=none;html=1;rounded=0;entryX=0;entryY=0.5;entryDx=0;entryDy=0;labelBackgroundColor=none;fontColor=default;exitX=0.979;exitY=0.643;exitDx=0;exitDy=0;exitPerimeter=0;" edge="1" parent="1" source="AwmBCkN8pmVGD5Ynmysm-98" target="AwmBCkN8pmVGD5Ynmysm-94">
          <mxGeometry width="50" height="50" relative="1" as="geometry">
            <mxPoint x="-15" y="610" as="sourcePoint" />
            <mxPoint x="-5" y="435" as="targetPoint" />
          </mxGeometry>
        </mxCell>
        <mxCell id="AwmBCkN8pmVGD5Ynmysm-97" value="&amp;lt;&amp;lt;include&amp;gt;&amp;gt;" style="endArrow=open;endSize=12;dashed=1;html=1;rounded=0;dashPattern=1 3;labelBackgroundColor=none;strokeWidth=2;fontFamily=Helvetica;fontSize=11;fontColor=default;shape=connector;entryX=0;entryY=0.5;entryDx=0;entryDy=0;exitX=1;exitY=0.5;exitDx=0;exitDy=0;" edge="1" parent="1" source="AwmBCkN8pmVGD5Ynmysm-91" target="AwmBCkN8pmVGD5Ynmysm-92">
          <mxGeometry x="-0.1517" y="11" width="160" relative="1" as="geometry">
            <mxPoint x="-135" y="470" as="sourcePoint" />
            <mxPoint x="47.5" y="440" as="targetPoint" />
            <mxPoint as="offset" />
          </mxGeometry>
        </mxCell>
        <mxCell id="AwmBCkN8pmVGD5Ynmysm-98" value="Doctor" style="ellipse;whiteSpace=wrap;html=1;fontFamily=Helvetica;fontSize=11;labelBackgroundColor=none;" vertex="1" parent="1">
          <mxGeometry x="-275" y="560" width="140" height="70" as="geometry" />
        </mxCell>
        <mxCell id="AwmBCkN8pmVGD5Ynmysm-99" value="&amp;lt;&amp;lt;include&amp;gt;&amp;gt;" style="endArrow=open;endSize=12;dashed=1;html=1;rounded=0;dashPattern=1 3;labelBackgroundColor=none;strokeWidth=2;fontFamily=Helvetica;fontSize=11;fontColor=default;shape=connector;entryX=0;entryY=0.5;entryDx=0;entryDy=0;exitX=1;exitY=0.5;exitDx=0;exitDy=0;" edge="1" parent="1" source="AwmBCkN8pmVGD5Ynmysm-90" target="AwmBCkN8pmVGD5Ynmysm-87">
          <mxGeometry width="160" relative="1" as="geometry">
            <mxPoint x="-145" y="483" as="sourcePoint" />
            <mxPoint x="-39" y="500" as="targetPoint" />
          </mxGeometry>
        </mxCell>
        <mxCell id="AwmBCkN8pmVGD5Ynmysm-100" value="Delete" style="ellipse;whiteSpace=wrap;html=1;fontFamily=Helvetica;fontSize=11;labelBackgroundColor=none;" vertex="1" parent="1">
          <mxGeometry x="55" y="620" width="140" height="70" as="geometry" />
        </mxCell>
        <mxCell id="AwmBCkN8pmVGD5Ynmysm-101" value="" style="endArrow=none;html=1;rounded=0;labelBackgroundColor=none;fontColor=default;exitX=0.979;exitY=0.734;exitDx=0;exitDy=0;exitPerimeter=0;entryX=0;entryY=0;entryDx=0;entryDy=0;" edge="1" parent="1" source="AwmBCkN8pmVGD5Ynmysm-98" target="AwmBCkN8pmVGD5Ynmysm-100">
          <mxGeometry width="50" height="50" relative="1" as="geometry">
            <mxPoint x="-105" y="585" as="sourcePoint" />
            <mxPoint x="143" y="589" as="targetPoint" />
          </mxGeometry>
        </mxCell>
        <mxCell id="AwmBCkN8pmVGD5Ynmysm-102" value="Update" style="ellipse;whiteSpace=wrap;html=1;fontFamily=Helvetica;fontSize=11;labelBackgroundColor=none;" vertex="1" parent="1">
          <mxGeometry x="-15" y="690" width="140" height="70" as="geometry" />
        </mxCell>
        <mxCell id="AwmBCkN8pmVGD5Ynmysm-103" value="&amp;lt;&amp;lt;expend&amp;gt;&amp;gt;" style="endArrow=open;endSize=12;dashed=1;html=1;rounded=0;dashPattern=1 3;labelBackgroundColor=none;strokeWidth=2;fontFamily=Helvetica;fontSize=11;fontColor=default;shape=connector;entryX=1;entryY=1;entryDx=0;entryDy=0;exitX=0.047;exitY=0.769;exitDx=0;exitDy=0;exitPerimeter=0;" edge="1" parent="1" source="AwmBCkN8pmVGD5Ynmysm-88" target="AwmBCkN8pmVGD5Ynmysm-90">
          <mxGeometry x="-0.1517" y="11" width="160" relative="1" as="geometry">
            <mxPoint x="-170" y="390" as="sourcePoint" />
            <mxPoint x="-50" y="380" as="targetPoint" />
            <mxPoint as="offset" />
          </mxGeometry>
        </mxCell>
        <mxCell id="AwmBCkN8pmVGD5Ynmysm-104" value="" style="endArrow=none;html=1;rounded=0;labelBackgroundColor=none;fontColor=default;exitX=1;exitY=1;exitDx=0;exitDy=0;" edge="1" parent="1" source="AwmBCkN8pmVGD5Ynmysm-98" target="AwmBCkN8pmVGD5Ynmysm-102">
          <mxGeometry width="50" height="50" relative="1" as="geometry">
            <mxPoint x="-88" y="581" as="sourcePoint" />
            <mxPoint x="176" y="620" as="targetPoint" />
          </mxGeometry>
        </mxCell>
        <mxCell id="AwmBCkN8pmVGD5Ynmysm-105" value="Verification" style="ellipse;whiteSpace=wrap;html=1;fontFamily=Helvetica;fontSize=11;labelBackgroundColor=none;" vertex="1" parent="1">
          <mxGeometry x="175" y="710" width="140" height="70" as="geometry" />
        </mxCell>
        <mxCell id="AwmBCkN8pmVGD5Ynmysm-106" value="&amp;lt;&amp;lt;include&amp;gt;&amp;gt;" style="endArrow=open;endSize=12;dashed=1;html=1;rounded=0;dashPattern=1 3;labelBackgroundColor=none;strokeWidth=2;fontFamily=Helvetica;fontSize=11;fontColor=default;shape=connector;exitX=0.5;exitY=1;exitDx=0;exitDy=0;" edge="1" parent="1" source="AwmBCkN8pmVGD5Ynmysm-100" target="AwmBCkN8pmVGD5Ynmysm-105">
          <mxGeometry x="-0.1517" y="11" width="160" relative="1" as="geometry">
            <mxPoint x="-95" y="445" as="sourcePoint" />
            <mxPoint x="175.37055121780895" y="780.0161985782906" as="targetPoint" />
            <mxPoint as="offset" />
          </mxGeometry>
        </mxCell>
        <mxCell id="AwmBCkN8pmVGD5Ynmysm-107" value="&amp;lt;&amp;lt;include&amp;gt;&amp;gt;" style="endArrow=open;endSize=12;dashed=1;html=1;rounded=0;dashPattern=1 3;labelBackgroundColor=none;strokeWidth=2;fontFamily=Helvetica;fontSize=11;fontColor=default;shape=connector;exitX=1;exitY=1;exitDx=0;exitDy=0;entryX=0.5;entryY=0;entryDx=0;entryDy=0;" edge="1" parent="1" source="AwmBCkN8pmVGD5Ynmysm-102" target="AwmBCkN8pmVGD5Ynmysm-89">
          <mxGeometry x="-0.1517" y="11" width="160" relative="1" as="geometry">
            <mxPoint x="180" y="710" as="sourcePoint" />
            <mxPoint x="236" y="773" as="targetPoint" />
            <mxPoint as="offset" />
          </mxGeometry>
        </mxCell>
        <mxCell id="AwmBCkN8pmVGD5Ynmysm-108" value="Patient" style="ellipse;whiteSpace=wrap;html=1;fontFamily=Helvetica;fontSize=11;labelBackgroundColor=none;" vertex="1" parent="1">
          <mxGeometry x="-275" y="700" width="140" height="70" as="geometry" />
        </mxCell>
        <mxCell id="AwmBCkN8pmVGD5Ynmysm-109" value="Nurses" style="ellipse;whiteSpace=wrap;html=1;fontFamily=Helvetica;fontSize=11;labelBackgroundColor=none;" vertex="1" parent="1">
          <mxGeometry x="-275" y="965" width="140" height="70" as="geometry" />
        </mxCell>
        <mxCell id="AwmBCkN8pmVGD5Ynmysm-110" value="" style="endArrow=none;html=1;rounded=0;labelBackgroundColor=none;fontColor=default;" edge="1" parent="1">
          <mxGeometry width="50" height="50" relative="1" as="geometry">
            <mxPoint x="325" y="1570" as="sourcePoint" />
            <mxPoint x="325" y="280" as="targetPoint" />
          </mxGeometry>
        </mxCell>
        <mxCell id="AwmBCkN8pmVGD5Ynmysm-111" value="Update data in database" style="ellipse;whiteSpace=wrap;html=1;labelBackgroundColor=none;" vertex="1" parent="1">
          <mxGeometry x="-225" y="820" width="140" height="80" as="geometry" />
        </mxCell>
        <mxCell id="AwmBCkN8pmVGD5Ynmysm-112" value="&amp;lt;&amp;lt;include&amp;gt;&amp;gt;" style="endArrow=open;endSize=12;dashed=1;html=1;rounded=0;dashPattern=1 3;labelBackgroundColor=none;strokeWidth=2;fontFamily=Helvetica;fontSize=11;fontColor=default;shape=connector;exitX=0.786;exitY=1;exitDx=0;exitDy=0;entryX=0.5;entryY=0;entryDx=0;entryDy=0;exitPerimeter=0;" edge="1" parent="1" source="AwmBCkN8pmVGD5Ynmysm-108" target="AwmBCkN8pmVGD5Ynmysm-111">
          <mxGeometry x="-0.1517" y="11" width="160" relative="1" as="geometry">
            <mxPoint x="-135" y="760" as="sourcePoint" />
            <mxPoint x="-62" y="810" as="targetPoint" />
            <mxPoint as="offset" />
          </mxGeometry>
        </mxCell>
        <mxCell id="AwmBCkN8pmVGD5Ynmysm-113" value="Add&amp;nbsp;" style="ellipse;whiteSpace=wrap;html=1;fontFamily=Helvetica;fontSize=11;labelBackgroundColor=none;" vertex="1" parent="1">
          <mxGeometry x="-39" y="880" width="140" height="70" as="geometry" />
        </mxCell>
        <mxCell id="AwmBCkN8pmVGD5Ynmysm-114" value="View&amp;nbsp;" style="ellipse;whiteSpace=wrap;html=1;fontFamily=Helvetica;fontSize=11;labelBackgroundColor=none;" vertex="1" parent="1">
          <mxGeometry x="77.5" y="950" width="140" height="70" as="geometry" />
        </mxCell>
        <mxCell id="AwmBCkN8pmVGD5Ynmysm-115" value="Delete" style="ellipse;whiteSpace=wrap;html=1;fontFamily=Helvetica;fontSize=11;labelBackgroundColor=none;" vertex="1" parent="1">
          <mxGeometry x="74" y="1026" width="140" height="70" as="geometry" />
        </mxCell>
        <mxCell id="AwmBCkN8pmVGD5Ynmysm-116" value="Update" style="ellipse;whiteSpace=wrap;html=1;fontFamily=Helvetica;fontSize=11;labelBackgroundColor=none;" vertex="1" parent="1">
          <mxGeometry x="-52" y="1072" width="140" height="70" as="geometry" />
        </mxCell>
        <mxCell id="AwmBCkN8pmVGD5Ynmysm-117" value="Verification" style="ellipse;whiteSpace=wrap;html=1;fontFamily=Helvetica;fontSize=11;labelBackgroundColor=none;" vertex="1" parent="1">
          <mxGeometry x="177" y="1128" width="140" height="70" as="geometry" />
        </mxCell>
        <mxCell id="AwmBCkN8pmVGD5Ynmysm-118" value="&amp;lt;&amp;lt;include&amp;gt;&amp;gt;" style="endArrow=open;endSize=12;dashed=1;html=1;rounded=0;dashPattern=1 3;labelBackgroundColor=none;strokeWidth=2;fontFamily=Helvetica;fontSize=11;fontColor=default;shape=connector;exitX=0.5;exitY=1;exitDx=0;exitDy=0;" edge="1" parent="1" source="AwmBCkN8pmVGD5Ynmysm-115" target="AwmBCkN8pmVGD5Ynmysm-117">
          <mxGeometry x="-0.1517" y="11" width="160" relative="1" as="geometry">
            <mxPoint x="-62.5" y="855" as="sourcePoint" />
            <mxPoint x="207.87055121780895" y="1190.0161985782906" as="targetPoint" />
            <mxPoint as="offset" />
          </mxGeometry>
        </mxCell>
        <mxCell id="AwmBCkN8pmVGD5Ynmysm-119" value="&amp;lt;&amp;lt;include&amp;gt;&amp;gt;" style="endArrow=open;endSize=12;dashed=1;html=1;rounded=0;dashPattern=1 3;labelBackgroundColor=none;strokeWidth=2;fontFamily=Helvetica;fontSize=11;fontColor=default;shape=connector;exitX=1;exitY=1;exitDx=0;exitDy=0;entryX=0.438;entryY=-0.057;entryDx=0;entryDy=0;entryPerimeter=0;" edge="1" parent="1" source="AwmBCkN8pmVGD5Ynmysm-116" target="AwmBCkN8pmVGD5Ynmysm-120">
          <mxGeometry x="-0.1517" y="11" width="160" relative="1" as="geometry">
            <mxPoint x="212.5" y="1120" as="sourcePoint" />
            <mxPoint x="197.5" y="1200" as="targetPoint" />
            <mxPoint as="offset" />
          </mxGeometry>
        </mxCell>
        <mxCell id="AwmBCkN8pmVGD5Ynmysm-120" value="Update data in database" style="ellipse;whiteSpace=wrap;html=1;labelBackgroundColor=none;" vertex="1" parent="1">
          <mxGeometry x="95" y="1195" width="140" height="80" as="geometry" />
        </mxCell>
        <mxCell id="AwmBCkN8pmVGD5Ynmysm-121" value="" style="endArrow=none;html=1;rounded=0;labelBackgroundColor=none;fontColor=default;exitX=1;exitY=0;exitDx=0;exitDy=0;entryX=0;entryY=0.5;entryDx=0;entryDy=0;" edge="1" parent="1" source="AwmBCkN8pmVGD5Ynmysm-109" target="AwmBCkN8pmVGD5Ynmysm-113">
          <mxGeometry width="50" height="50" relative="1" as="geometry">
            <mxPoint x="-135" y="970" as="sourcePoint" />
            <mxPoint x="-17" y="920" as="targetPoint" />
          </mxGeometry>
        </mxCell>
        <mxCell id="AwmBCkN8pmVGD5Ynmysm-122" value="" style="endArrow=none;html=1;rounded=0;labelBackgroundColor=none;fontColor=default;exitX=1;exitY=0.5;exitDx=0;exitDy=0;entryX=0.027;entryY=0.271;entryDx=0;entryDy=0;entryPerimeter=0;" edge="1" parent="1" source="AwmBCkN8pmVGD5Ynmysm-109" target="AwmBCkN8pmVGD5Ynmysm-115">
          <mxGeometry width="50" height="50" relative="1" as="geometry">
            <mxPoint x="-125" y="990" as="sourcePoint" />
            <mxPoint x="-15" y="935" as="targetPoint" />
          </mxGeometry>
        </mxCell>
        <mxCell id="AwmBCkN8pmVGD5Ynmysm-123" value="" style="endArrow=none;html=1;rounded=0;labelBackgroundColor=none;fontColor=default;entryX=0;entryY=0.5;entryDx=0;entryDy=0;exitX=0.96;exitY=0.249;exitDx=0;exitDy=0;exitPerimeter=0;" edge="1" parent="1" source="AwmBCkN8pmVGD5Ynmysm-109" target="AwmBCkN8pmVGD5Ynmysm-114">
          <mxGeometry width="50" height="50" relative="1" as="geometry">
            <mxPoint x="-115" y="1000" as="sourcePoint" />
            <mxPoint x="-5" y="945" as="targetPoint" />
          </mxGeometry>
        </mxCell>
        <mxCell id="AwmBCkN8pmVGD5Ynmysm-124" value="" style="endArrow=none;html=1;rounded=0;labelBackgroundColor=none;fontColor=default;exitX=1;exitY=0.5;exitDx=0;exitDy=0;" edge="1" parent="1" source="AwmBCkN8pmVGD5Ynmysm-109" target="AwmBCkN8pmVGD5Ynmysm-116">
          <mxGeometry width="50" height="50" relative="1" as="geometry">
            <mxPoint x="-105" y="1010" as="sourcePoint" />
            <mxPoint x="5" y="955" as="targetPoint" />
          </mxGeometry>
        </mxCell>
        <mxCell id="AwmBCkN8pmVGD5Ynmysm-125" value="Bed Manager" style="ellipse;whiteSpace=wrap;html=1;fontFamily=Helvetica;fontSize=11;labelBackgroundColor=none;" vertex="1" parent="1">
          <mxGeometry x="-267" y="1110" width="140" height="70" as="geometry" />
        </mxCell>
        <mxCell id="AwmBCkN8pmVGD5Ynmysm-126" value="Wallet" style="ellipse;whiteSpace=wrap;html=1;fontFamily=Helvetica;fontSize=11;labelBackgroundColor=none;" vertex="1" parent="1">
          <mxGeometry x="-267" y="1233" width="140" height="70" as="geometry" />
        </mxCell>
        <mxCell id="AwmBCkN8pmVGD5Ynmysm-127" value="Message" style="ellipse;whiteSpace=wrap;html=1;fontFamily=Helvetica;fontSize=11;labelBackgroundColor=none;" vertex="1" parent="1">
          <mxGeometry x="-275" y="1444" width="140" height="70" as="geometry" />
        </mxCell>
        <mxCell id="AwmBCkN8pmVGD5Ynmysm-128" value="Fetch Data" style="ellipse;whiteSpace=wrap;html=1;fontFamily=Helvetica;fontSize=11;labelBackgroundColor=none;" vertex="1" parent="1">
          <mxGeometry x="-195" y="1360" width="140" height="70" as="geometry" />
        </mxCell>
        <mxCell id="AwmBCkN8pmVGD5Ynmysm-129" value="&amp;lt;&amp;lt;include&amp;gt;&amp;gt;" style="endArrow=open;endSize=12;dashed=1;html=1;rounded=0;dashPattern=1 3;labelBackgroundColor=none;strokeWidth=2;fontFamily=Helvetica;fontSize=11;fontColor=default;shape=connector;entryX=0.275;entryY=0.059;entryDx=0;entryDy=0;entryPerimeter=0;" edge="1" parent="1" target="AwmBCkN8pmVGD5Ynmysm-128">
          <mxGeometry x="-0.1517" y="11" width="160" relative="1" as="geometry">
            <mxPoint x="-146" y="1289" as="sourcePoint" />
            <mxPoint x="-101" y="1251" as="targetPoint" />
            <mxPoint as="offset" />
          </mxGeometry>
        </mxCell>
        <mxCell id="AwmBCkN8pmVGD5Ynmysm-130" value="Pay Salary" style="ellipse;whiteSpace=wrap;html=1;fontFamily=Helvetica;fontSize=11;labelBackgroundColor=none;" vertex="1" parent="1">
          <mxGeometry x="8" y="1328" width="140" height="70" as="geometry" />
        </mxCell>
        <mxCell id="AwmBCkN8pmVGD5Ynmysm-131" value="" style="endArrow=none;html=1;rounded=0;labelBackgroundColor=none;fontColor=default;exitX=1;exitY=1;exitDx=0;exitDy=0;entryX=0;entryY=0.5;entryDx=0;entryDy=0;" edge="1" parent="1" source="AwmBCkN8pmVGD5Ynmysm-126" target="AwmBCkN8pmVGD5Ynmysm-130">
          <mxGeometry width="50" height="50" relative="1" as="geometry">
            <mxPoint x="-171" y="1095" as="sourcePoint" />
            <mxPoint x="-11" y="1175" as="targetPoint" />
          </mxGeometry>
        </mxCell>
        <mxCell id="AwmBCkN8pmVGD5Ynmysm-132" value="View Statement" style="ellipse;whiteSpace=wrap;html=1;fontFamily=Helvetica;fontSize=11;labelBackgroundColor=none;" vertex="1" parent="1">
          <mxGeometry x="-37" y="1236" width="140" height="70" as="geometry" />
        </mxCell>
        <mxCell id="AwmBCkN8pmVGD5Ynmysm-133" value="" style="endArrow=none;html=1;rounded=0;labelBackgroundColor=none;fontColor=default;exitX=1;exitY=0.5;exitDx=0;exitDy=0;entryX=0;entryY=0.5;entryDx=0;entryDy=0;" edge="1" parent="1" source="AwmBCkN8pmVGD5Ynmysm-126" target="AwmBCkN8pmVGD5Ynmysm-132">
          <mxGeometry width="50" height="50" relative="1" as="geometry">
            <mxPoint x="-127" y="1358" as="sourcePoint" />
            <mxPoint x="17" y="1450" as="targetPoint" />
          </mxGeometry>
        </mxCell>
        <mxCell id="AwmBCkN8pmVGD5Ynmysm-134" value="" style="endArrow=none;html=1;rounded=0;exitX=1;exitY=0.3333333333333333;exitDx=0;exitDy=0;exitPerimeter=0;labelBackgroundColor=none;fontColor=default;entryX=0.033;entryY=0.33;entryDx=0;entryDy=0;entryPerimeter=0;" edge="1" parent="1" source="AwmBCkN8pmVGD5Ynmysm-78" target="AwmBCkN8pmVGD5Ynmysm-126">
          <mxGeometry width="50" height="50" relative="1" as="geometry">
            <mxPoint x="-405" y="800" as="sourcePoint" />
            <mxPoint x="-227" y="1140" as="targetPoint" />
          </mxGeometry>
        </mxCell>
        <mxCell id="AwmBCkN8pmVGD5Ynmysm-135" value="" style="endArrow=none;html=1;rounded=0;exitX=1;exitY=0.3333333333333333;exitDx=0;exitDy=0;exitPerimeter=0;labelBackgroundColor=none;fontColor=default;entryX=0;entryY=0;entryDx=0;entryDy=0;" edge="1" parent="1" source="AwmBCkN8pmVGD5Ynmysm-78" target="AwmBCkN8pmVGD5Ynmysm-127">
          <mxGeometry width="50" height="50" relative="1" as="geometry">
            <mxPoint x="-410" y="887" as="sourcePoint" />
            <mxPoint x="-242" y="1276" as="targetPoint" />
          </mxGeometry>
        </mxCell>
        <mxCell id="AwmBCkN8pmVGD5Ynmysm-136" value="" style="endArrow=none;html=1;rounded=0;labelBackgroundColor=none;fontColor=default;" edge="1" parent="1">
          <mxGeometry width="50" height="50" relative="1" as="geometry">
            <mxPoint x="-315" y="1570" as="sourcePoint" />
            <mxPoint x="325" y="1570" as="targetPoint" />
            <Array as="points">
              <mxPoint x="-53" y="1570" />
            </Array>
          </mxGeometry>
        </mxCell>
      </root>
    </mxGraphModel>
  </diagram>
</mxfile>
